<svg width="78" height="22" viewBox="0 0 78 22" fill="none" xmlns="http://www.w3.org/2000/svg">
<path d="M9.216 0.92C10.464 0.92 11.584 1.16 12.576 1.64C13.568 2.104 14.408 2.72 15.096 3.488C15.8 4.24 16.336 5.096 16.704 6.056C17.088 7.016 17.28 7.992 17.28 8.984C17.28 9.704 17.208 10.368 17.064 10.976C16.92 11.584 16.72 12.144 16.464 12.656C16.208 13.168 15.912 13.64 15.576 14.072C15.256 14.488 14.904 14.872 14.52 15.224L15.312 16.112C15.936 16.688 16.616 17.2 17.352 17.648C18.088 18.112 18.832 18.496 19.584 18.8C20.336 19.12 21.08 19.36 21.816 19.52C22.552 19.68 23.224 19.76 23.832 19.76C24.36 19.76 24.92 19.712 25.512 19.616C26.12 19.52 26.728 19.376 27.336 19.184C27.96 18.992 28.576 18.736 29.184 18.416C29.792 18.112 30.368 17.744 30.912 17.312L31.056 17.528C30.528 18.104 29.936 18.608 29.28 19.04C28.624 19.488 27.936 19.856 27.216 20.144C26.496 20.432 25.752 20.648 24.984 20.792C24.232 20.952 23.488 21.032 22.752 21.032C22.016 21.032 21.28 20.968 20.544 20.84C19.808 20.712 19.072 20.496 18.336 20.192C17.6 19.888 16.864 19.472 16.128 18.944C15.392 18.432 14.656 17.784 13.92 17L13.104 16.136C12.832 16.312 12.52 16.472 12.168 16.616C11.832 16.744 11.472 16.856 11.088 16.952C10.704 17.048 10.312 17.12 9.912 17.168C9.512 17.216 9.136 17.24 8.784 17.24C7.664 17.24 6.624 17.016 5.664 16.568C4.72 16.104 3.896 15.504 3.192 14.768C2.504 14.016 1.96 13.16 1.56 12.2C1.16 11.24 0.96 10.256 0.96 9.248C0.96 8.224 1.144 7.216 1.512 6.224C1.88 5.216 2.416 4.32 3.12 3.536C3.84 2.752 4.712 2.12 5.736 1.64C6.76 1.16 7.92 0.92 9.216 0.92ZM9.192 16.4C10.264 16.352 11.208 16.112 12.024 15.68C12.84 15.232 13.512 14.672 14.04 14C14.584 13.312 14.992 12.56 15.264 11.744C15.536 10.928 15.672 10.128 15.672 9.344C15.672 8.464 15.504 7.576 15.168 6.68C14.848 5.768 14.392 4.952 13.8 4.232C13.224 3.496 12.52 2.904 11.688 2.456C10.856 1.992 9.936 1.76 8.928 1.76C7.936 1.76 7.04 1.984 6.24 2.432C5.456 2.864 4.792 3.424 4.248 4.112C3.704 4.8 3.288 5.568 3 6.416C2.712 7.248 2.568 8.072 2.568 8.888C2.568 9.768 2.728 10.656 3.048 11.552C3.384 12.448 3.848 13.256 4.44 13.976C5.032 14.696 5.728 15.28 6.528 15.728C7.344 16.176 8.232 16.4 9.192 16.4ZM19.9316 17V16.76C20.0596 16.76 20.1716 16.712 20.2676 16.616C20.3636 16.52 20.4436 16.408 20.5076 16.28C20.5716 16.152 20.6196 16.016 20.6516 15.872C20.6836 15.712 20.6996 15.568 20.6996 15.44V8.792C20.6996 8.52 20.6596 8.264 20.5796 8.024C20.4996 7.768 20.2676 7.632 19.8836 7.616V7.4L22.2836 6.632V15.44C22.2836 15.568 22.2996 15.712 22.3316 15.872C22.3636 16.016 22.4116 16.152 22.4756 16.28C22.5396 16.408 22.6196 16.52 22.7156 16.616C22.8116 16.712 22.9236 16.76 23.0516 16.76V17H19.9316ZM20.0516 4.328C20.0516 4.008 20.1556 3.736 20.3636 3.512C20.5876 3.288 20.8596 3.176 21.1796 3.176C21.4996 3.176 21.7716 3.288 21.9956 3.512C22.2196 3.736 22.3316 4.008 22.3316 4.328C22.3316 4.648 22.2196 4.912 21.9956 5.12C21.7716 5.328 21.4996 5.432 21.1796 5.432C20.8596 5.432 20.5876 5.328 20.3636 5.12C20.1556 4.912 20.0516 4.648 20.0516 4.328ZM27.9711 7.736V13.52C27.9711 13.936 27.9791 14.312 27.9951 14.648C28.0111 14.984 28.0511 15.264 28.1151 15.488C28.1791 15.712 28.2751 15.888 28.4031 16.016C28.5311 16.128 28.7071 16.184 28.9311 16.184C29.2671 16.184 29.5791 16.024 29.8671 15.704C30.1711 15.384 30.3631 15 30.4431 14.552H30.6591V16.304C30.5151 16.304 30.3951 16.352 30.2991 16.448C30.1711 16.56 29.9871 16.68 29.7471 16.808C29.5231 16.936 29.1791 17 28.7151 17C28.1391 17 27.6911 16.888 27.3711 16.664C27.0511 16.44 26.8191 16.144 26.6751 15.776C26.5311 15.408 26.4431 15 26.4111 14.552C26.3951 14.104 26.3871 13.648 26.3871 13.184V7.736H25.0431V6.92H26.3871V4.784C26.3871 4.512 26.3471 4.264 26.2671 4.04C26.2031 3.8 25.9711 3.672 25.5711 3.656V3.416L27.9711 2.648V6.92H30.6591V7.736H27.9711ZM41.3188 16.136C41.1908 16.136 41.0708 16.168 40.9588 16.232C40.8468 16.28 40.7188 16.344 40.5748 16.424C40.3028 16.584 39.9588 16.752 39.5428 16.928C39.1268 17.088 38.5828 17.168 37.9108 17.168C37.0948 17.168 36.3348 17.04 35.6308 16.784C34.9428 16.512 34.3428 16.144 33.8308 15.68C33.3348 15.2 32.9428 14.648 32.6548 14.024C32.3828 13.384 32.2468 12.696 32.2468 11.96C32.2468 11.272 32.3668 10.616 32.6068 9.992C32.8628 9.368 33.2228 8.816 33.6868 8.336C34.1508 7.856 34.7188 7.472 35.3908 7.184C36.0788 6.896 36.8548 6.752 37.7188 6.752C38.3108 6.752 38.7908 6.824 39.1588 6.968C39.5268 7.096 39.8388 7.224 40.0948 7.352C40.2388 7.432 40.3748 7.496 40.5028 7.544C40.6468 7.592 40.7908 7.616 40.9348 7.616V9.44H40.6948C40.6148 9.136 40.4708 8.872 40.2628 8.648C40.0548 8.408 39.8148 8.208 39.5428 8.048C39.2708 7.888 38.9748 7.768 38.6548 7.688C38.3348 7.608 38.0228 7.568 37.7188 7.568C37.0628 7.568 36.4868 7.688 35.9908 7.928C35.4948 8.152 35.0868 8.456 34.7668 8.84C34.4468 9.208 34.2068 9.632 34.0468 10.112C33.8868 10.592 33.8068 11.088 33.8068 11.6C33.8068 12.192 33.9028 12.776 34.0948 13.352C34.2868 13.912 34.5588 14.416 34.9108 14.864C35.2788 15.312 35.7188 15.672 36.2308 15.944C36.7428 16.216 37.3188 16.352 37.9588 16.352C38.4068 16.352 38.8148 16.288 39.1828 16.16C39.5668 16.032 39.8868 15.864 40.1428 15.656C40.4148 15.448 40.6308 15.224 40.7908 14.984C40.9508 14.728 41.0468 14.488 41.0788 14.264H41.3188V16.136ZM52.5639 15.44C52.5639 15.568 52.5799 15.712 52.6119 15.872C52.6439 16.016 52.6919 16.152 52.7559 16.28C52.8359 16.408 52.9159 16.52 52.9959 16.616C53.0919 16.712 53.2039 16.76 53.3319 16.76V17H50.2359V16.76C50.3479 16.76 50.4519 16.712 50.5479 16.616C50.6439 16.52 50.7239 16.408 50.7879 16.28C50.8679 16.152 50.9239 16.016 50.9559 15.872C50.9879 15.712 51.0039 15.568 51.0039 15.44V10.976C51.0039 10.4 50.9239 9.896 50.7639 9.464C50.6039 9.032 50.3879 8.672 50.1159 8.384C49.8439 8.096 49.5319 7.888 49.1799 7.76C48.8439 7.616 48.4999 7.544 48.1479 7.544C47.7959 7.544 47.4439 7.616 47.0919 7.76C46.7559 7.888 46.4519 8.072 46.1799 8.312C45.9239 8.552 45.7079 8.848 45.5319 9.2C45.3719 9.536 45.2919 9.912 45.2919 10.328V15.44C45.2919 15.568 45.3079 15.712 45.3399 15.872C45.3719 16.016 45.4199 16.152 45.4839 16.28C45.5639 16.408 45.6439 16.52 45.7239 16.616C45.8199 16.712 45.9319 16.76 46.0599 16.76V17H42.9399V16.76C43.0519 16.76 43.1559 16.712 43.2519 16.616C43.3479 16.52 43.4279 16.408 43.4919 16.28C43.5719 16.152 43.6279 16.016 43.6599 15.872C43.6919 15.712 43.7079 15.568 43.7079 15.44V3.176C43.7079 2.904 43.6679 2.648 43.5879 2.408C43.5079 2.168 43.2759 2.04 42.8919 2.024V1.784L45.2919 1.04V7.976C45.4039 7.848 45.5479 7.712 45.7239 7.568C45.8999 7.408 46.1079 7.264 46.3479 7.136C46.6039 6.992 46.8919 6.88 47.2119 6.8C47.5479 6.704 47.9399 6.656 48.3879 6.656C49.1399 6.656 49.7799 6.784 50.3079 7.04C50.8359 7.296 51.2679 7.632 51.6039 8.048C51.9399 8.448 52.1799 8.896 52.3239 9.392C52.4839 9.872 52.5639 10.344 52.5639 10.808V15.44ZM57.0094 12.152C57.0734 12.712 57.2094 13.248 57.4174 13.76C57.6254 14.256 57.8974 14.696 58.2334 15.08C58.5854 15.464 59.0094 15.776 59.5054 16.016C60.0014 16.24 60.5774 16.352 61.2334 16.352C61.5854 16.352 61.9534 16.304 62.3374 16.208C62.7374 16.096 63.1054 15.944 63.4414 15.752C63.7774 15.56 64.0734 15.328 64.3294 15.056C64.6014 14.768 64.7854 14.448 64.8814 14.096H65.0974V15.896C65.0014 15.896 64.8894 15.928 64.7614 15.992C64.6494 16.056 64.5134 16.136 64.3534 16.232C64.0334 16.424 63.6014 16.632 63.0574 16.856C62.5134 17.064 61.7934 17.168 60.8974 17.168C60.1774 17.168 59.4894 17.064 58.8334 16.856C58.1934 16.648 57.6254 16.328 57.1294 15.896C56.6334 15.464 56.2334 14.912 55.9294 14.24C55.6414 13.568 55.4974 12.768 55.4974 11.84C55.4974 11.248 55.5934 10.648 55.7854 10.04C55.9934 9.432 56.2974 8.888 56.6974 8.408C57.1134 7.912 57.6414 7.512 58.2814 7.208C58.9214 6.904 59.6894 6.752 60.5854 6.752C61.3854 6.752 62.0814 6.888 62.6734 7.16C63.2814 7.432 63.7774 7.808 64.1614 8.288C64.5614 8.768 64.8574 9.336 65.0494 9.992C65.2414 10.648 65.3374 11.368 65.3374 12.152H57.0094ZM60.4894 7.544C59.9294 7.544 59.4414 7.656 59.0254 7.88C58.6254 8.104 58.2814 8.392 57.9934 8.744C57.7054 9.096 57.4814 9.496 57.3214 9.944C57.1614 10.392 57.0574 10.84 57.0094 11.288H63.8494C63.8334 10.824 63.7454 10.368 63.5854 9.92C63.4414 9.472 63.2334 9.072 62.9614 8.72C62.6894 8.368 62.3454 8.088 61.9294 7.88C61.5134 7.656 61.0334 7.544 60.4894 7.544ZM76.9858 15.44C76.9858 15.568 77.0018 15.712 77.0338 15.872C77.0658 16.016 77.1138 16.152 77.1778 16.28C77.2578 16.408 77.3378 16.52 77.4178 16.616C77.5138 16.712 77.6258 16.76 77.7538 16.76V17H74.6578V16.76C74.7698 16.76 74.8738 16.712 74.9698 16.616C75.0658 16.52 75.1458 16.408 75.2098 16.28C75.2898 16.152 75.3458 16.016 75.3778 15.872C75.4098 15.712 75.4258 15.568 75.4258 15.44V10.976C75.4258 10.4 75.3458 9.896 75.1858 9.464C75.0258 9.032 74.8098 8.672 74.5378 8.384C74.2658 8.096 73.9538 7.888 73.6018 7.76C73.2658 7.616 72.9218 7.544 72.5698 7.544C72.2178 7.544 71.8658 7.616 71.5138 7.76C71.1778 7.904 70.8738 8.096 70.6018 8.336C70.3458 8.56 70.1298 8.832 69.9538 9.152C69.7938 9.456 69.7138 9.776 69.7138 10.112V15.44C69.7138 15.568 69.7298 15.712 69.7618 15.872C69.7938 16.016 69.8418 16.152 69.9058 16.28C69.9858 16.408 70.0658 16.52 70.1458 16.616C70.2418 16.712 70.3538 16.76 70.4818 16.76V17H67.3618V16.76C67.4738 16.76 67.5778 16.712 67.6738 16.616C67.7698 16.52 67.8498 16.408 67.9138 16.28C67.9938 16.152 68.0498 16.016 68.0818 15.872C68.1138 15.712 68.1298 15.568 68.1298 15.44V8.816C68.1298 8.544 68.0898 8.288 68.0098 8.048C67.9298 7.792 67.6978 7.656 67.3138 7.64V7.424L69.7138 6.656V7.976C69.8258 7.848 69.9698 7.712 70.1458 7.568C70.3218 7.408 70.5298 7.264 70.7698 7.136C71.0258 6.992 71.3138 6.88 71.6338 6.8C71.9698 6.704 72.3618 6.656 72.8098 6.656C73.5618 6.656 74.2018 6.784 74.7298 7.04C75.2578 7.296 75.6898 7.632 76.0258 8.048C76.3618 8.448 76.6018 8.896 76.7458 9.392C76.9058 9.872 76.9858 10.344 76.9858 10.808V15.44Z" fill="#EFE7D2"/>
</svg>
